<svg xmlns="http://www.w3.org/2000/svg" xmlns:xlink="http://www.w3.org/1999/xlink" width="320" zoomAndPan="magnify" viewBox="0 0 240 89.999999" height="120" preserveAspectRatio="xMidYMid meet" version="1.0"><defs><g/><clipPath id="b47945e4de"><path d="M 30 36 L 63 36 L 63 79.5 L 30 79.5 Z M 30 36 " clip-rule="nonzero"/></clipPath><clipPath id="e227941294"><path d="M 61 30 L 72 30 L 72 44 L 61 44 Z M 61 30 " clip-rule="nonzero"/></clipPath></defs><g fill="#545454" fill-opacity="1"><g transform="translate(78.50873, 46.874911)"><g><path d="M 23.5 -20.21875 C 23.644531 -19.9375 23.734375 -19.679688 23.765625 -19.453125 C 23.796875 -19.222656 23.8125 -18.890625 23.8125 -18.453125 L 23.8125 -2.53125 C 23.8125 -1.207031 23.445312 -0.429688 22.71875 -0.203125 C 22.351562 -0.0859375 21.894531 -0.03125 21.34375 -0.03125 C 20.789062 -0.03125 20.347656 -0.078125 20.015625 -0.171875 C 19.691406 -0.265625 19.441406 -0.378906 19.265625 -0.515625 C 19.097656 -0.648438 18.96875 -0.84375 18.875 -1.09375 C 18.78125 -1.414062 18.734375 -1.910156 18.734375 -2.578125 L 18.734375 -12.1875 C 18.253906 -11.59375 17.554688 -10.648438 16.640625 -9.359375 C 15.722656 -8.078125 15.140625 -7.269531 14.890625 -6.9375 C 14.640625 -6.613281 14.46875 -6.390625 14.375 -6.265625 C 14.28125 -6.140625 14.046875 -5.96875 13.671875 -5.75 C 13.296875 -5.53125 12.890625 -5.421875 12.453125 -5.421875 C 12.023438 -5.421875 11.632812 -5.519531 11.28125 -5.71875 C 10.925781 -5.925781 10.675781 -6.125 10.53125 -6.3125 L 10.296875 -6.625 C 9.910156 -7.101562 9.15625 -8.117188 8.03125 -9.671875 C 6.90625 -11.234375 6.296875 -12.070312 6.203125 -12.1875 L 6.203125 -2.53125 C 6.203125 -2.082031 6.1875 -1.75 6.15625 -1.53125 C 6.125 -1.3125 6.03125 -1.066406 5.875 -0.796875 C 5.59375 -0.285156 4.847656 -0.03125 3.640625 -0.03125 C 2.472656 -0.03125 1.75 -0.285156 1.46875 -0.796875 C 1.3125 -1.066406 1.21875 -1.316406 1.1875 -1.546875 C 1.15625 -1.773438 1.140625 -2.117188 1.140625 -2.578125 L 1.140625 -18.5 C 1.140625 -18.9375 1.15625 -19.265625 1.1875 -19.484375 C 1.21875 -19.710938 1.3125 -19.96875 1.46875 -20.25 C 1.75 -20.75 2.492188 -21 3.703125 -21 C 4.210938 -21 4.65625 -20.9375 5.03125 -20.8125 C 5.40625 -20.6875 5.648438 -20.554688 5.765625 -20.421875 L 5.9375 -20.25 L 12.453125 -11.703125 C 15.703125 -16.003906 17.875 -18.84375 18.96875 -20.21875 C 19.289062 -20.738281 20.054688 -21 21.265625 -21 C 22.484375 -21 23.226562 -20.738281 23.5 -20.21875 Z M 23.5 -20.21875 "/></g></g></g><g fill="#545454" fill-opacity="1"><g transform="translate(103.460971, 46.874911)"><g><path d="M 10.953125 -13.515625 C 11.066406 -14.585938 11.820312 -15.125 13.21875 -15.125 C 13.96875 -15.125 14.523438 -15.066406 14.890625 -14.953125 C 15.253906 -14.835938 15.503906 -14.632812 15.640625 -14.34375 C 15.785156 -14.050781 15.875 -13.796875 15.90625 -13.578125 C 15.9375 -13.359375 15.953125 -13.03125 15.953125 -12.59375 L 15.953125 -2.546875 C 15.953125 -2.109375 15.9375 -1.78125 15.90625 -1.5625 C 15.875 -1.34375 15.789062 -1.085938 15.65625 -0.796875 C 15.394531 -0.304688 14.742188 -0.0625 13.703125 -0.0625 C 12.660156 -0.0625 11.960938 -0.1875 11.609375 -0.4375 C 11.253906 -0.695312 11.046875 -1.078125 10.984375 -1.578125 C 10.273438 -0.566406 9.09375 -0.0625 7.4375 -0.0625 C 5.789062 -0.0625 4.257812 -0.816406 2.84375 -2.328125 C 1.425781 -3.835938 0.71875 -5.585938 0.71875 -7.578125 C 0.71875 -9.578125 1.425781 -11.328125 2.84375 -12.828125 C 4.269531 -14.335938 5.835938 -15.09375 7.546875 -15.09375 C 8.191406 -15.09375 8.78125 -14.976562 9.3125 -14.75 C 9.851562 -14.519531 10.226562 -14.300781 10.4375 -14.09375 C 10.644531 -13.894531 10.816406 -13.703125 10.953125 -13.515625 Z M 5.734375 -7.53125 C 5.734375 -6.90625 5.984375 -6.335938 6.484375 -5.828125 C 6.984375 -5.328125 7.585938 -5.078125 8.296875 -5.078125 C 9.003906 -5.078125 9.585938 -5.332031 10.046875 -5.84375 C 10.515625 -6.363281 10.75 -6.929688 10.75 -7.546875 C 10.75 -8.171875 10.523438 -8.75 10.078125 -9.28125 C 9.628906 -9.820312 9.023438 -10.09375 8.265625 -10.09375 C 7.515625 -10.09375 6.90625 -9.820312 6.4375 -9.28125 C 5.96875 -8.75 5.734375 -8.164062 5.734375 -7.53125 Z M 5.734375 -7.53125 "/></g></g></g><g fill="#545454" fill-opacity="1"><g transform="translate(120.554688, 46.874911)"><g><path d="M 9.921875 -10.046875 L 8.0625 -10.15625 L 8.0625 -6.203125 C 8.0625 -5.679688 8.140625 -5.304688 8.296875 -5.078125 C 8.460938 -4.847656 8.769531 -4.734375 9.21875 -4.734375 C 9.664062 -4.734375 10.007812 -4.71875 10.25 -4.6875 C 10.488281 -4.65625 10.742188 -4.566406 11.015625 -4.421875 C 11.453125 -4.171875 11.671875 -3.53125 11.671875 -2.5 C 11.671875 -1.289062 11.40625 -0.550781 10.875 -0.28125 C 10.582031 -0.15625 10.328125 -0.078125 10.109375 -0.046875 C 9.890625 -0.015625 9.570312 0 9.15625 0 C 7.164062 0 5.648438 -0.445312 4.609375 -1.34375 C 3.578125 -2.25 3.0625 -3.769531 3.0625 -5.90625 L 3.0625 -10.15625 C 2.707031 -10.09375 2.316406 -10.0625 1.890625 -10.0625 C 1.472656 -10.0625 1.125 -10.222656 0.84375 -10.546875 C 0.570312 -10.878906 0.4375 -11.4375 0.4375 -12.21875 C 0.4375 -13 0.484375 -13.566406 0.578125 -13.921875 C 0.671875 -14.273438 0.800781 -14.53125 0.96875 -14.6875 C 1.28125 -14.9375 1.664062 -15.0625 2.125 -15.0625 L 3.0625 -14.953125 L 3.0625 -17.90625 C 3.0625 -18.34375 3.078125 -18.664062 3.109375 -18.875 C 3.140625 -19.082031 3.234375 -19.3125 3.390625 -19.5625 C 3.640625 -20.039062 4.375 -20.28125 5.59375 -20.28125 C 6.894531 -20.28125 7.671875 -19.925781 7.921875 -19.21875 C 8.015625 -18.914062 8.0625 -18.425781 8.0625 -17.75 L 8.0625 -14.953125 C 8.90625 -15.023438 9.539062 -15.0625 9.96875 -15.0625 C 10.394531 -15.0625 10.71875 -15.046875 10.9375 -15.015625 C 11.164062 -14.984375 11.421875 -14.894531 11.703125 -14.75 C 12.203125 -14.5 12.453125 -13.757812 12.453125 -12.53125 C 12.453125 -11.332031 12.191406 -10.597656 11.671875 -10.328125 C 11.390625 -10.191406 11.132812 -10.109375 10.90625 -10.078125 C 10.6875 -10.054688 10.359375 -10.046875 9.921875 -10.046875 Z M 9.921875 -10.046875 "/></g></g></g><g fill="#545454" fill-opacity="1"><g transform="translate(133.432342, 46.874911)"><g><path d="M 11.421875 -14.953125 C 11.785156 -14.835938 12.085938 -14.640625 12.328125 -14.359375 C 12.566406 -14.078125 12.6875 -13.628906 12.6875 -13.015625 C 12.6875 -12.410156 12.503906 -11.742188 12.140625 -11.015625 C 11.773438 -10.285156 11.25 -9.921875 10.5625 -9.921875 C 10.21875 -9.921875 9.882812 -10 9.5625 -10.15625 C 9.25 -10.3125 8.832031 -10.390625 8.3125 -10.390625 C 7.800781 -10.390625 7.320312 -10.207031 6.875 -9.84375 C 6.425781 -9.476562 6.203125 -9.035156 6.203125 -8.515625 L 6.203125 -2.5 C 6.203125 -2.0625 6.1875 -1.726562 6.15625 -1.5 C 6.125 -1.28125 6.03125 -1.03125 5.875 -0.75 C 5.59375 -0.25 4.847656 0 3.640625 0 C 2.722656 0 2.0625 -0.160156 1.65625 -0.484375 C 1.351562 -0.753906 1.179688 -1.164062 1.140625 -1.71875 C 1.140625 -1.914062 1.140625 -2.191406 1.140625 -2.546875 L 1.140625 -12.625 C 1.140625 -13.0625 1.15625 -13.390625 1.1875 -13.609375 C 1.21875 -13.828125 1.300781 -14.070312 1.4375 -14.34375 C 1.707031 -14.863281 2.453125 -15.125 3.671875 -15.125 C 4.816406 -15.125 5.535156 -14.898438 5.828125 -14.453125 C 6.035156 -14.148438 6.140625 -13.835938 6.140625 -13.515625 C 6.234375 -13.648438 6.367188 -13.8125 6.546875 -14 C 6.734375 -14.1875 7.125 -14.441406 7.71875 -14.765625 C 8.3125 -15.097656 8.832031 -15.265625 9.28125 -15.265625 C 9.726562 -15.265625 10.101562 -15.238281 10.40625 -15.1875 C 10.71875 -15.144531 11.054688 -15.066406 11.421875 -14.953125 Z M 11.421875 -14.953125 "/></g></g></g><g fill="#545454" fill-opacity="1"><g transform="translate(146.53944, 46.874911)"><g><path d="M 1.140625 -12.59375 C 1.140625 -13.03125 1.15625 -13.359375 1.1875 -13.578125 C 1.21875 -13.796875 1.300781 -14.050781 1.4375 -14.34375 C 1.707031 -14.84375 2.453125 -15.09375 3.671875 -15.09375 C 4.585938 -15.09375 5.238281 -14.929688 5.625 -14.609375 C 5.945312 -14.335938 6.117188 -13.925781 6.140625 -13.375 C 6.160156 -13.175781 6.171875 -12.894531 6.171875 -12.53125 L 6.171875 -2.5 C 6.171875 -2.0625 6.15625 -1.726562 6.125 -1.5 C 6.09375 -1.28125 6.003906 -1.03125 5.859375 -0.75 C 5.609375 -0.25 4.867188 0 3.640625 0 C 2.441406 0 1.707031 -0.257812 1.4375 -0.78125 C 1.300781 -1.0625 1.21875 -1.304688 1.1875 -1.515625 C 1.15625 -1.734375 1.140625 -2.070312 1.140625 -2.53125 Z M 5.859375 -17.90625 C 5.722656 -17.632812 5.472656 -17.441406 5.109375 -17.328125 C 4.742188 -17.210938 4.257812 -17.15625 3.65625 -17.15625 C 3.050781 -17.15625 2.566406 -17.210938 2.203125 -17.328125 C 1.835938 -17.441406 1.582031 -17.640625 1.4375 -17.921875 C 1.300781 -18.210938 1.21875 -18.46875 1.1875 -18.6875 C 1.15625 -18.90625 1.140625 -19.234375 1.140625 -19.671875 C 1.140625 -20.117188 1.15625 -20.453125 1.1875 -20.671875 C 1.21875 -20.890625 1.300781 -21.132812 1.4375 -21.40625 C 1.707031 -21.914062 2.453125 -22.171875 3.671875 -22.171875 C 4.878906 -22.171875 5.609375 -21.914062 5.859375 -21.40625 C 6.003906 -21.113281 6.09375 -20.859375 6.125 -20.640625 C 6.15625 -20.421875 6.171875 -20.085938 6.171875 -19.640625 C 6.171875 -19.203125 6.15625 -18.875 6.125 -18.65625 C 6.09375 -18.4375 6.003906 -18.1875 5.859375 -17.90625 Z M 5.859375 -17.90625 "/></g></g></g><g fill="#545454" fill-opacity="1"><g transform="translate(153.853023, 46.874911)"><g><path d="M 6.078125 -13.109375 C 6.984375 -14.460938 8.066406 -15.140625 9.328125 -15.140625 C 11.273438 -15.140625 12.726562 -14.3125 13.6875 -12.65625 C 13.894531 -12.9375 14.144531 -13.234375 14.4375 -13.546875 C 14.738281 -13.867188 15.210938 -14.210938 15.859375 -14.578125 C 16.515625 -14.953125 17.1875 -15.140625 17.875 -15.140625 C 19.40625 -15.140625 20.6875 -14.550781 21.71875 -13.375 C 22.75 -12.207031 23.265625 -10.265625 23.265625 -7.546875 L 23.265625 -2.53125 C 23.265625 -2.082031 23.25 -1.75 23.21875 -1.53125 C 23.1875 -1.3125 23.097656 -1.0625 22.953125 -0.78125 C 22.703125 -0.257812 21.960938 0 20.734375 0 C 19.535156 0 18.800781 -0.265625 18.53125 -0.796875 C 18.394531 -1.085938 18.3125 -1.34375 18.28125 -1.5625 C 18.257812 -1.78125 18.25 -2.109375 18.25 -2.546875 L 18.25 -7.578125 C 18.25 -9.234375 17.65625 -10.0625 16.46875 -10.0625 C 15.800781 -10.0625 15.347656 -9.84375 15.109375 -9.40625 C 14.867188 -8.96875 14.75 -8.347656 14.75 -7.546875 L 14.75 -2.53125 C 14.75 -2.070312 14.734375 -1.734375 14.703125 -1.515625 C 14.671875 -1.304688 14.582031 -1.0625 14.4375 -0.78125 C 14.164062 -0.257812 13.414062 0 12.1875 0 C 10.988281 0 10.253906 -0.265625 9.984375 -0.796875 C 9.847656 -1.085938 9.765625 -1.34375 9.734375 -1.5625 C 9.710938 -1.78125 9.703125 -2.109375 9.703125 -2.546875 L 9.703125 -7.578125 C 9.703125 -9.234375 9.109375 -10.0625 7.921875 -10.0625 C 6.773438 -10.0625 6.203125 -9.234375 6.203125 -7.578125 L 6.203125 -2.5 C 6.203125 -2.0625 6.1875 -1.726562 6.15625 -1.5 C 6.125 -1.28125 6.03125 -1.03125 5.875 -0.75 C 5.59375 -0.25 4.847656 0 3.640625 0 C 2.441406 0 1.707031 -0.257812 1.4375 -0.78125 C 1.300781 -1.0625 1.21875 -1.304688 1.1875 -1.515625 C 1.15625 -1.734375 1.140625 -2.070312 1.140625 -2.53125 L 1.140625 -12.625 C 1.140625 -13.0625 1.15625 -13.390625 1.1875 -13.609375 C 1.21875 -13.828125 1.3125 -14.070312 1.46875 -14.34375 C 1.75 -14.863281 2.425781 -15.125 3.5 -15.125 C 4.570312 -15.125 5.269531 -14.945312 5.59375 -14.59375 C 5.914062 -14.25 6.078125 -13.753906 6.078125 -13.109375 Z M 6.078125 -13.109375 "/></g></g></g><g fill="#545454" fill-opacity="1"><g transform="translate(178.260324, 46.874911)"><g><path d="M 0.71875 -7.546875 C 0.71875 -9.835938 1.519531 -11.726562 3.125 -13.21875 C 4.726562 -14.71875 6.5625 -15.46875 8.625 -15.46875 C 10.695312 -15.46875 12.523438 -14.722656 14.109375 -13.234375 C 15.703125 -11.753906 16.5 -9.867188 16.5 -7.578125 C 16.5 -5.984375 16.085938 -4.566406 15.265625 -3.328125 C 14.441406 -2.097656 13.441406 -1.191406 12.265625 -0.609375 C 11.085938 -0.0234375 9.867188 0.265625 8.609375 0.265625 C 7.347656 0.265625 6.125 -0.046875 4.9375 -0.671875 C 3.75 -1.296875 2.75 -2.210938 1.9375 -3.421875 C 1.125 -4.640625 0.71875 -6.015625 0.71875 -7.546875 Z M 6.703125 -5.5 C 7.316406 -5.03125 7.941406 -4.796875 8.578125 -4.796875 C 9.210938 -4.796875 9.84375 -5.03125 10.46875 -5.5 C 11.101562 -5.976562 11.421875 -6.6875 11.421875 -7.625 C 11.421875 -8.5625 11.125 -9.257812 10.53125 -9.71875 C 9.9375 -10.175781 9.296875 -10.40625 8.609375 -10.40625 C 7.921875 -10.40625 7.28125 -10.164062 6.6875 -9.6875 C 6.09375 -9.21875 5.796875 -8.519531 5.796875 -7.59375 C 5.796875 -6.664062 6.097656 -5.96875 6.703125 -5.5 Z M 6.703125 -5.5 "/></g></g></g><g fill="#545454" fill-opacity="1"><g transform="translate(195.468768, 46.874911)"><g><path d="M 9.546875 -15.125 C 11.460938 -15.125 13.054688 -14.390625 14.328125 -12.921875 C 15.597656 -11.460938 16.234375 -9.679688 16.234375 -7.578125 L 16.234375 -2.53125 C 16.234375 -2.082031 16.21875 -1.75 16.1875 -1.53125 C 16.164062 -1.3125 16.085938 -1.066406 15.953125 -0.796875 C 15.679688 -0.285156 14.9375 -0.03125 13.71875 -0.03125 C 12.351562 -0.03125 11.566406 -0.382812 11.359375 -1.09375 C 11.242188 -1.414062 11.1875 -1.898438 11.1875 -2.546875 L 11.1875 -7.609375 C 11.1875 -8.390625 10.960938 -9 10.515625 -9.4375 C 10.066406 -9.875 9.460938 -10.09375 8.703125 -10.09375 C 7.953125 -10.09375 7.34375 -9.863281 6.875 -9.40625 C 6.40625 -8.945312 6.171875 -8.347656 6.171875 -7.609375 L 6.171875 -2.53125 C 6.171875 -2.082031 6.15625 -1.75 6.125 -1.53125 C 6.09375 -1.3125 6.003906 -1.066406 5.859375 -0.796875 C 5.609375 -0.285156 4.867188 -0.03125 3.640625 -0.03125 C 2.441406 -0.03125 1.707031 -0.285156 1.4375 -0.796875 C 1.300781 -1.085938 1.21875 -1.34375 1.1875 -1.5625 C 1.15625 -1.78125 1.140625 -2.109375 1.140625 -2.546875 L 1.140625 -12.703125 C 1.140625 -13.128906 1.15625 -13.453125 1.1875 -13.671875 C 1.21875 -13.890625 1.3125 -14.132812 1.46875 -14.40625 C 1.726562 -14.882812 2.460938 -15.125 3.671875 -15.125 C 4.835938 -15.125 5.554688 -14.898438 5.828125 -14.453125 C 6.015625 -14.128906 6.109375 -13.738281 6.109375 -13.28125 C 6.179688 -13.414062 6.351562 -13.609375 6.625 -13.859375 C 6.894531 -14.109375 7.15625 -14.304688 7.40625 -14.453125 C 8.050781 -14.898438 8.765625 -15.125 9.546875 -15.125 Z M 9.546875 -15.125 "/></g></g></g><g fill="#545454" fill-opacity="1"><g transform="translate(212.849298, 46.874911)"><g><path d="M 15.203125 -14.953125 C 16.328125 -14.453125 16.890625 -13.847656 16.890625 -13.140625 C 16.890625 -12.796875 16.8125 -12.46875 16.65625 -12.15625 C 16.507812 -11.851562 16.4375 -11.691406 16.4375 -11.671875 L 8.921875 5.140625 C 8.765625 5.503906 8.632812 5.78125 8.53125 5.96875 C 8.425781 6.15625 8.257812 6.332031 8.03125 6.5 C 7.800781 6.675781 7.515625 6.765625 7.171875 6.765625 C 6.828125 6.765625 6.320312 6.625 5.65625 6.34375 C 4.519531 5.84375 3.953125 5.25 3.953125 4.5625 C 3.953125 4.101562 4.875 1.910156 6.71875 -2.015625 L 1 -11.625 C 0.625 -12.25 0.4375 -12.71875 0.4375 -13.03125 C 0.4375 -13.632812 0.953125 -14.242188 1.984375 -14.859375 C 2.628906 -15.242188 3.132812 -15.4375 3.5 -15.4375 C 3.863281 -15.4375 4.160156 -15.359375 4.390625 -15.203125 C 4.617188 -15.046875 4.785156 -14.882812 4.890625 -14.71875 C 4.992188 -14.5625 5.519531 -13.675781 6.46875 -12.0625 C 7.414062 -10.445312 8.320312 -8.941406 9.1875 -7.546875 C 9.28125 -7.847656 9.796875 -9.023438 10.734375 -11.078125 C 11.671875 -13.140625 12.171875 -14.238281 12.234375 -14.375 C 12.296875 -14.507812 12.40625 -14.671875 12.5625 -14.859375 C 12.8125 -15.179688 13.160156 -15.34375 13.609375 -15.34375 C 14.054688 -15.34375 14.585938 -15.210938 15.203125 -14.953125 Z M 15.203125 -14.953125 "/></g></g></g><g fill="#f1494c" fill-opacity="1"><g transform="translate(78.50873, 72.597141)"><g><path d="M 14.71875 -20.15625 C 14.90625 -20.488281 15.179688 -20.710938 15.546875 -20.828125 C 15.910156 -20.941406 16.363281 -21 16.90625 -21 C 17.457031 -21 17.898438 -20.953125 18.234375 -20.859375 C 18.566406 -20.765625 18.8125 -20.648438 18.96875 -20.515625 C 19.132812 -20.378906 19.253906 -20.175781 19.328125 -19.90625 C 19.441406 -19.601562 19.5 -19.117188 19.5 -18.453125 L 19.5 -2.53125 C 19.5 -2.070312 19.484375 -1.734375 19.453125 -1.515625 C 19.429688 -1.304688 19.34375 -1.0625 19.1875 -0.78125 C 18.925781 -0.257812 18.179688 0 16.953125 0 C 16.203125 0 15.679688 -0.0546875 15.390625 -0.171875 C 15.109375 -0.285156 14.875 -0.46875 14.6875 -0.71875 C 10.382812 -6.457031 7.554688 -10.207031 6.203125 -11.96875 L 6.203125 -2.53125 C 6.203125 -2.070312 6.1875 -1.734375 6.15625 -1.515625 C 6.125 -1.304688 6.03125 -1.0625 5.875 -0.78125 C 5.613281 -0.257812 4.867188 0 3.640625 0 C 2.453125 0 1.726562 -0.257812 1.46875 -0.78125 C 1.3125 -1.0625 1.21875 -1.316406 1.1875 -1.546875 C 1.15625 -1.773438 1.140625 -2.109375 1.140625 -2.546875 L 1.140625 -18.5625 C 1.140625 -19.289062 1.226562 -19.820312 1.40625 -20.15625 C 1.59375 -20.488281 1.867188 -20.710938 2.234375 -20.828125 C 2.597656 -20.941406 3.066406 -21 3.640625 -21 C 4.210938 -21 4.664062 -20.945312 5 -20.84375 C 5.34375 -20.738281 5.578125 -20.617188 5.703125 -20.484375 C 5.785156 -20.421875 6.007812 -20.171875 6.375 -19.734375 C 10.40625 -14.242188 13.097656 -10.617188 14.453125 -8.859375 L 14.453125 -18.5625 C 14.453125 -19.289062 14.539062 -19.820312 14.71875 -20.15625 Z M 14.71875 -20.15625 "/></g></g></g><g fill="#f1494c" fill-opacity="1"><g transform="translate(99.158865, 72.597141)"><g><path d="M 15.71875 -9.359375 C 15.71875 -8.191406 15.425781 -7.320312 14.84375 -6.75 C 14.257812 -6.1875 13.613281 -5.90625 12.90625 -5.90625 L 6.109375 -5.90625 C 6.109375 -5.375 6.421875 -4.925781 7.046875 -4.5625 C 7.679688 -4.195312 8.316406 -4.015625 8.953125 -4.015625 C 10.054688 -4.015625 10.925781 -4.128906 11.5625 -4.359375 L 11.875 -4.46875 C 12.332031 -4.6875 12.71875 -4.796875 13.03125 -4.796875 C 13.632812 -4.796875 14.160156 -4.363281 14.609375 -3.5 C 14.847656 -2.976562 14.96875 -2.539062 14.96875 -2.1875 C 14.96875 -0.476562 12.929688 0.375 8.859375 0.375 C 7.441406 0.375 6.179688 0.128906 5.078125 -0.359375 C 3.984375 -0.847656 3.132812 -1.492188 2.53125 -2.296875 C 1.320312 -3.847656 0.71875 -5.578125 0.71875 -7.484375 C 0.71875 -9.898438 1.492188 -11.828125 3.046875 -13.265625 C 4.609375 -14.710938 6.554688 -15.4375 8.890625 -15.4375 C 11.546875 -15.4375 13.5 -14.5 14.75 -12.625 C 15.394531 -11.625 15.71875 -10.535156 15.71875 -9.359375 Z M 9.671875 -8.515625 C 10.390625 -8.515625 10.75 -8.820312 10.75 -9.4375 C 10.75 -9.875 10.582031 -10.226562 10.25 -10.5 C 9.914062 -10.769531 9.4375 -10.90625 8.8125 -10.90625 C 8.195312 -10.90625 7.582031 -10.648438 6.96875 -10.140625 C 6.351562 -9.628906 6.046875 -9.085938 6.046875 -8.515625 Z M 9.671875 -8.515625 "/></g></g></g><g fill="#f1494c" fill-opacity="1"><g transform="translate(115.592926, 72.597141)"><g><path d="M 11.625 -7.578125 L 14.796875 -4.359375 C 15.484375 -3.671875 15.828125 -3.082031 15.828125 -2.59375 C 15.828125 -2.101562 15.484375 -1.519531 14.796875 -0.84375 C 14.109375 -0.164062 13.523438 0.171875 13.046875 0.171875 C 12.566406 0.171875 11.984375 -0.171875 11.296875 -0.859375 L 8.140625 -4.046875 L 4.96875 -0.859375 C 4.28125 -0.171875 3.703125 0.171875 3.234375 0.171875 C 2.765625 0.171875 2.179688 -0.164062 1.484375 -0.84375 C 0.785156 -1.519531 0.4375 -2.101562 0.4375 -2.59375 C 0.4375 -3.082031 0.78125 -3.671875 1.46875 -4.359375 L 4.640625 -7.578125 L 1.46875 -10.78125 C 0.78125 -11.46875 0.4375 -12.054688 0.4375 -12.546875 C 0.4375 -13.035156 0.785156 -13.625 1.484375 -14.3125 C 2.179688 -15 2.765625 -15.34375 3.234375 -15.34375 C 3.703125 -15.34375 4.28125 -15 4.96875 -14.3125 L 8.140625 -11.109375 L 11.296875 -14.3125 C 11.984375 -15 12.566406 -15.34375 13.046875 -15.34375 C 13.523438 -15.34375 14.109375 -15 14.796875 -14.3125 C 15.484375 -13.625 15.828125 -13.035156 15.828125 -12.546875 C 15.828125 -12.054688 15.484375 -11.46875 14.796875 -10.78125 Z M 11.625 -7.578125 "/></g></g></g><g fill="#f1494c" fill-opacity="1"><g transform="translate(131.854902, 72.597141)"><g><path d="M 7.859375 -0.0625 C 5.929688 -0.0625 4.328125 -0.789062 3.046875 -2.25 C 1.773438 -3.71875 1.140625 -5.503906 1.140625 -7.609375 L 1.140625 -12.625 C 1.140625 -13.082031 1.15625 -13.414062 1.1875 -13.625 C 1.21875 -13.832031 1.300781 -14.082031 1.4375 -14.375 C 1.707031 -14.882812 2.453125 -15.140625 3.671875 -15.140625 C 5.015625 -15.140625 5.800781 -14.78125 6.03125 -14.0625 C 6.144531 -13.75 6.203125 -13.257812 6.203125 -12.59375 L 6.203125 -7.578125 C 6.203125 -6.785156 6.425781 -6.171875 6.875 -5.734375 C 7.320312 -5.296875 7.921875 -5.078125 8.671875 -5.078125 C 9.429688 -5.078125 10.046875 -5.304688 10.515625 -5.765625 C 10.984375 -6.222656 11.21875 -6.828125 11.21875 -7.578125 L 11.21875 -12.65625 C 11.21875 -13.09375 11.226562 -13.421875 11.25 -13.640625 C 11.28125 -13.859375 11.375 -14.113281 11.53125 -14.40625 C 11.78125 -14.894531 12.515625 -15.140625 13.734375 -15.140625 C 14.941406 -15.140625 15.679688 -14.882812 15.953125 -14.375 C 16.085938 -14.082031 16.164062 -13.828125 16.1875 -13.609375 C 16.21875 -13.390625 16.234375 -13.0625 16.234375 -12.625 L 16.234375 -2.46875 C 16.234375 -2.050781 16.21875 -1.726562 16.1875 -1.5 C 16.164062 -1.28125 16.078125 -1.039062 15.921875 -0.78125 C 15.628906 -0.28125 14.894531 -0.03125 13.71875 -0.03125 C 12.550781 -0.03125 11.832031 -0.257812 11.5625 -0.71875 C 11.375 -1.039062 11.28125 -1.429688 11.28125 -1.890625 C 11.195312 -1.753906 11.019531 -1.5625 10.75 -1.3125 C 10.488281 -1.070312 10.234375 -0.863281 9.984375 -0.6875 C 9.335938 -0.269531 8.628906 -0.0625 7.859375 -0.0625 Z M 7.859375 -0.0625 "/></g></g></g><g fill="#f1494c" fill-opacity="1"><g transform="translate(149.235431, 72.597141)"><g><path d="M 1.265625 -1.34375 C 0.898438 -1.570312 0.71875 -1.9375 0.71875 -2.4375 C 0.71875 -2.9375 1.082031 -3.691406 1.8125 -4.703125 C 2.019531 -5.023438 2.359375 -5.1875 2.828125 -5.1875 C 3.296875 -5.1875 3.929688 -4.953125 4.734375 -4.484375 C 5.535156 -4.015625 6.257812 -3.78125 6.90625 -3.78125 C 8.070312 -3.78125 8.65625 -4.007812 8.65625 -4.46875 C 8.65625 -4.832031 8.015625 -5.101562 6.734375 -5.28125 C 5.535156 -5.445312 4.34375 -5.894531 3.15625 -6.625 C 2.601562 -6.96875 2.144531 -7.507812 1.78125 -8.25 C 1.414062 -8.988281 1.234375 -9.863281 1.234375 -10.875 C 1.234375 -13.894531 3.304688 -15.40625 7.453125 -15.40625 C 8.816406 -15.40625 10.210938 -15.082031 11.640625 -14.4375 C 12.316406 -14.125 12.65625 -13.738281 12.65625 -13.28125 C 12.65625 -12.820312 12.441406 -12.253906 12.015625 -11.578125 C 11.597656 -10.910156 11.171875 -10.578125 10.734375 -10.578125 C 10.503906 -10.578125 10.078125 -10.722656 9.453125 -11.015625 C 8.828125 -11.304688 8.15625 -11.453125 7.4375 -11.453125 C 6.300781 -11.453125 5.734375 -11.238281 5.734375 -10.8125 C 5.734375 -10.238281 6.382812 -9.867188 7.6875 -9.703125 C 8.945312 -9.566406 10.171875 -9.203125 11.359375 -8.609375 C 11.910156 -8.335938 12.375 -7.867188 12.75 -7.203125 C 13.125 -6.546875 13.3125 -5.71875 13.3125 -4.71875 C 13.3125 -3.726562 13.125 -2.882812 12.75 -2.1875 C 12.375 -1.488281 11.851562 -0.96875 11.1875 -0.625 C 9.96875 -0.03125 8.429688 0.265625 6.578125 0.265625 C 4.734375 0.265625 2.960938 -0.269531 1.265625 -1.34375 Z M 1.265625 -1.34375 "/></g></g></g><g clip-path="url(#b47945e4de)"><path fill="#f1494c" d="M 45.640625 39.234375 C 40.089844 43.558594 37.214844 49.667969 30.875 52.109375 C 37.789062 53.300781 44.664062 46.804688 49.082031 44.660156 C 55.011719 41.664062 55.792969 49.898438 53.480469 54.15625 C 49.867188 61.382812 31.527344 64.296875 33.667969 79.425781 C 40.90625 62.902344 59.484375 70.574219 62.652344 52.183594 C 64.40625 40.027344 54.355469 32.765625 45.640625 39.234375 " fill-opacity="1" fill-rule="nonzero"/></g><path fill="#f1494c" d="M 17.582031 37.289062 C 20.242188 25.71875 28.484375 44 39.496094 44.773438 C 32.257812 39.710938 31.410156 31.929688 24.210938 27.398438 C 14.84375 21.550781 3.875 36.597656 11.363281 50.054688 C 19.03125 61.515625 27.234375 59.003906 31.316406 74.347656 C 36.800781 55.128906 13.492188 52.71875 17.582031 37.289062 " fill-opacity="1" fill-rule="nonzero"/><path fill="#f1494c" d="M 20.753906 24.988281 C 25.113281 24.988281 28.652344 21.457031 28.652344 17.09375 C 28.652344 12.730469 25.113281 9.191406 20.753906 9.191406 C 16.390625 9.191406 12.851562 12.730469 12.851562 17.09375 C 12.851562 21.457031 16.390625 24.988281 20.753906 24.988281 " fill-opacity="1" fill-rule="nonzero"/><path fill="#f1494c" d="M 49.476562 35.359375 C 53.84375 35.359375 57.378906 31.824219 57.378906 27.464844 C 57.378906 23.101562 53.84375 19.5625 49.476562 19.5625 C 45.113281 19.5625 41.582031 23.101562 41.582031 27.464844 C 41.582031 31.824219 45.113281 35.359375 49.476562 35.359375 " fill-opacity="1" fill-rule="nonzero"/><g clip-path="url(#e227941294)"><path fill="#f1494c" d="M 63.25 43.640625 C 66.183594 37.421875 67.632812 34.546875 72.015625 30.855469 C 65.515625 28.214844 58.957031 38.398438 63.25 43.640625 " fill-opacity="1" fill-rule="nonzero"/></g><path fill="#f1494c" d="M 4.039062 14.488281 C 5.695312 15.261719 6.914062 20.007812 7.140625 21.9375 C 8.144531 29.5 -0.0585938 35.292969 4.253906 47.234375 C 4.933594 44.25 5.351562 41.394531 6.277344 38.804688 C 7.539062 34.644531 10.386719 31.429688 10.746094 26.179688 C 11.371094 18.929688 6 14.136719 4.039062 14.488281 " fill-opacity="1" fill-rule="nonzero"/></svg>